<svg xmlns="http://www.w3.org/2000/svg" width="766.993" height="682.823" viewBox="0 0 766.993 682.823">
  <g id="Group_1" data-name="Group 1" transform="translate(-0.016 -0.177)">
    <path id="Path_1" data-name="Path 1" d="M768.383,721.626H392.132A48.18,48.18,0,0,1,344.007,673.5V231.625A48.18,48.18,0,0,1,392.132,183.5h350.04l74.336,59.251V673.5A48.179,48.179,0,0,1,768.383,721.626Z" transform="translate(-216.5 -108.5)" fill="#e6e6e6"/>
    <path id="Path_2" data-name="Path 2" d="M392.132,197.354a34.31,34.31,0,0,0-34.271,34.271V673.5a34.31,34.31,0,0,0,34.271,34.271H768.383A34.31,34.31,0,0,0,802.653,673.5V249.425l-65.328-52.071Z" transform="translate(-216.5 -108.5)" fill="#fff"/>
    <path id="Path_3" data-name="Path 3" d="M689.879,325.84h-252.3a8.014,8.014,0,0,1,0-16.028h252.3a8.014,8.014,0,0,1,0,16.028Z" transform="translate(-216.5 -108.5)" fill="#ccc"/>
    <path id="Path_4" data-name="Path 4" d="M722.937,352.887H437.577a8.014,8.014,0,1,1,0-16.028h285.36a8.014,8.014,0,0,1,0,16.028Z" transform="translate(-216.5 -108.5)" fill="#ccc"/>
    <path id="Path_5" data-name="Path 5" d="M689.879,447.053h-252.3a8.014,8.014,0,1,1,0-16.028h252.3a8.014,8.014,0,0,1,0,16.028Z" transform="translate(-216.5 -108.5)" fill="#6c63ff"/>
    <path id="Path_6" data-name="Path 6" d="M722.937,474.1H437.577a8.014,8.014,0,0,1,0-16.028h285.36a8.014,8.014,0,1,1,0,16.028Z" transform="translate(-216.5 -108.5)" fill="#ccc"/>
    <path id="Path_7" data-name="Path 7" d="M689.879,568.267h-252.3a8.014,8.014,0,1,1,0-16.028h252.3a8.014,8.014,0,0,1,0,16.028Z" transform="translate(-216.5 -108.5)" fill="#ccc"/>
    <path id="Path_8" data-name="Path 8" d="M722.937,595.314H437.577a8.014,8.014,0,1,1,0-16.028h285.36a8.014,8.014,0,0,1,0,16.028Z" transform="translate(-216.5 -108.5)" fill="#ccc"/>
    <path id="Path_9" data-name="Path 9" d="M815.061,244.657h-58.23A16.028,16.028,0,0,1,740.8,228.629V185.621a1,1,0,0,1,1.624-.785l73.256,58.034a1,1,0,0,1-.622,1.787Z" transform="translate(-216.5 -108.5)" fill="#e6e6e6"/>
    <path id="Path_10" data-name="Path 10" d="M449.5,221.5a110,110,0,1,1-110-110,110,110,0,0,1,110,110Z" transform="translate(-216.5 -108.5)" fill="#fff"/>
    <path id="Path_11" data-name="Path 11" d="M390.34,240.322c-1.2,70.351-105.847,70.34-107.038,0C284.5,169.971,389.149,169.982,390.34,240.322Z" transform="translate(-216.5 -108.5)" fill="#6c63ff"/>
    <path id="Path_12" data-name="Path 12" d="M334.7,262.158l-.056-2c13.784,1.84,16.753-15.243,2.852-8.856l3.173-23.19,1.981.271-2.7,19.727C354.585,245.93,349.171,264.157,334.7,262.158Z" transform="translate(-216.5 -108.5)" fill="#2f2e41"/>
    <rect id="Rectangle_3" data-name="Rectangle 3" width="10.771" height="2" transform="translate(135.946 121.584)" fill="#2f2e41"/>
    <rect id="Rectangle_4" data-name="Rectangle 4" width="10.771" height="2" transform="translate(101.946 121.584)" fill="#2f2e41"/>
    <path id="Path_13" data-name="Path 13" d="M354.17,315.15c2.1-14.17-14.49-11.37-23.27-11.51a9.518,9.518,0,0,0-9.28,11.5,52.039,52.039,0,0,0-18.49,10.2,110.476,110.476,0,0,0,70.43.78,51.771,51.771,0,0,0-19.39-10.97Z" transform="translate(-216.5 -108.5)" fill="#2f2e41"/>
    <path id="Path_14" data-name="Path 14" d="M311.659,215.009c9.918-5.732,21.946-1.335,32.192,1.07,19.438,5.975,46.7-1.507,49.061-24.662,2.46-21.535-27-33.537-36.415-12.1l2.742-.358c-30.537-45.382-83.655-43.661-83.305,18.731-.113,1.927,2.887,1.921,3,0-1.124-36.767,23.209-61.9,57.605-38.272,7.872,5.743,14.241,13.35,20.11,21.056,3.582,4.014,4.361-13.274,21.506-8.746,18.869,7.31,12.712,34.328-4.153,40.26-20.838,10.646-43.407-10-63.855.435a1.5,1.5,0,0,0,1.514,2.592Z" transform="translate(-216.5 -108.5)" fill="#2f2e41"/>
    <path id="Path_15" data-name="Path 15" d="M339.5,334.5a112.9,112.9,0,1,1,34.988-5.527A112.9,112.9,0,0,1,339.5,334.5Zm0-220a107.015,107.015,0,1,0,107,107.005A107.018,107.018,0,0,0,339.5,114.5Z" transform="translate(-216.5 -108.5)" fill="#ccc"/>
    <path id="Path_16" data-name="Path 16" d="M980.5,447.5a110.035,110.035,0,0,1-75.941,104.62c-.659.21-1.319.42-1.99.62-2.86.88-5.76,1.63-8.71,2.27a108.137,108.137,0,0,1-16.21,2.25q-3.554.24-7.15.24a109.807,109.807,0,0,1-36.37-6.16c-.34-.12-.68-.24-1.01-.36A110.011,110.011,0,1,1,980.5,447.5Z" transform="translate(-216.5 -108.5)" fill="#fff"/>
    <circle id="Ellipse_1" data-name="Ellipse 1" cx="53.519" cy="53.519" r="53.519" transform="translate(597.845 304.841)" fill="#6c63ff"/>
    <path id="Path_17" data-name="Path 17" d="M870.989,495.7l.056-2c-3.721-.1-7-.337-9.466-2.138a6.148,6.148,0,0,1-2.381-4.528,3.514,3.514,0,0,1,1.153-2.894c1.636-1.382,4.269-.935,6.188-.055l1.655.759-3.173-23.19-1.981.271,2.7,19.727c-2.607-.767-5.023-.437-6.678.961a5.471,5.471,0,0,0-1.86,4.492,8.133,8.133,0,0,0,3.2,6.073C863.566,495.488,867.682,495.6,870.989,495.7Z" transform="translate(-216.5 -108.5)" fill="#2f2e41"/>
    <rect id="Rectangle_5" data-name="Rectangle 5" width="10.771" height="2" transform="translate(625.968 355.122)" fill="#2f2e41"/>
    <rect id="Rectangle_6" data-name="Rectangle 6" width="10.771" height="2" transform="translate(659.968 355.122)" fill="#2f2e41"/>
    <path id="Path_18" data-name="Path 18" d="M883.07,541.68a9.789,9.789,0,0,0,.22-2,9.515,9.515,0,0,0-9.5-9.5h-14a9.508,9.508,0,0,0-9.5,9.5,9.238,9.238,0,0,0,.22,2.01,53.739,53.739,0,0,0-14.81,7.33c-.88.61-1.75,1.27-2.58,1.96.33.12.67.24,1.01.36a109.809,109.809,0,0,0,36.37,6.16q3.6,0,7.15-.24a108.138,108.138,0,0,0,16.21-2.25c2.95-.64,5.85-1.39,8.71-2.27A54.2,54.2,0,0,0,883.07,541.68Z" transform="translate(-216.5 -108.5)" fill="#2f2e41"/>
    <path id="Path_19" data-name="Path 19" d="M881.27,555.99a7.359,7.359,0,0,0-3.62,1.27,108.138,108.138,0,0,0,16.21-2.25Z" transform="translate(-216.5 -108.5)" fill="#2f2e41"/>
    <path id="Path_20" data-name="Path 20" d="M916.4,454.147l-92.974-34.013A4,4,0,0,1,821.047,415l.315-1.487c7.261-19.848,31.328-32.34,51.176-25.079l28.61,10.466c19.848,7.261,28.475,30.764,21.214,50.612l-.828,2.248A4,4,0,0,1,916.4,454.147Z" transform="translate(-216.5 -108.5)" fill="#2f2e41"/>
    <path id="Path_21" data-name="Path 21" d="M921.411,456.034c-129.587,4.782-140.911-11.5-101.426-37.1l8.376-15.413,96,35Z" transform="translate(-216.5 -108.5)" fill="#2f2e41"/>
    <ellipse id="Ellipse_2" data-name="Ellipse 2" cx="4.5" cy="8.5" rx="4.5" ry="8.5" transform="translate(661.926 287.379) rotate(-73.27)" fill="#2f2e41"/>
    <path id="Path_22" data-name="Path 22" d="M870.5,560.5a112.726,112.726,0,0,1-37.362-6.329l-1.044-.372a113,113,0,1,1,73.393,1.174c-.711.226-1.38.439-2.059.642-2.84.874-5.854,1.659-8.933,2.327a111.38,111.38,0,0,1-16.661,2.313C875.427,560.417,872.953,560.5,870.5,560.5Zm0-220a107.015,107.015,0,0,0-36.361,207.658l.991.353A106.713,106.713,0,0,0,870.5,554.5c2.319,0,4.656-.079,6.948-.233a105.486,105.486,0,0,0,15.778-2.189c2.912-.631,5.76-1.373,8.462-2.2.669-.2,1.3-.4,1.94-.6A107.015,107.015,0,0,0,870.5,340.5Z" transform="translate(-216.5 -108.5)" fill="#ccc"/>
    <path id="Path_23" data-name="Path 23" d="M219.5,678.5a109.667,109.667,0,0,0,32.34,77.91c.86.85,1.74,1.7,2.63,2.53a109.852,109.852,0,0,0,17.46,13.31c1.2.74,2.4,1.45,3.63,2.14a109.376,109.376,0,0,0,19.88,8.73c1.19.39,2.4.76,3.61,1.1a110.454,110.454,0,0,0,66.82-1.88c.42-.15.84-.3,1.25-.45A110.01,110.01,0,1,0,219.5,678.5Z" transform="translate(-216.5 -108.5)" fill="#fff"/>
    <path id="Path_24" data-name="Path 24" d="M306.27,732.416a34.087,34.087,0,0,1-8.8,23.076c-5.656,6.207-14.076,10.324-22.573,8.62-7.824-1.568-14.182-8.407-13.389-16.68a12.356,12.356,0,0,1,15.267-11.1c7.433,1.929,10.394,12.641,4.2,17.669-1.486,1.206-3.621-.9-2.121-2.121,4.094-3.324,2.829-10.6-2.112-12.419-5.754-2.123-11.85,2.443-12.264,8.326-.491,6.974,4.852,12.226,11.4,13.463,7.088,1.338,14.115-2.29,18.918-7.3a30.955,30.955,0,0,0,8.474-21.542,1.5,1.5,0,0,1,3,0Z" transform="translate(-216.5 -108.5)" fill="#2f2e41"/>
    <circle id="Ellipse_3" data-name="Ellipse 3" cx="53.519" cy="53.519" r="53.519" transform="translate(65.545 535.949)" fill="#6c63ff"/>
    <path id="Path_25" data-name="Path 25" d="M332.826,720.8l-.056-2c3.721-.1,7-.337,9.466-2.138a6.148,6.148,0,0,0,2.381-4.528,3.515,3.515,0,0,0-1.153-2.895c-1.636-1.382-4.269-.935-6.188-.055l-1.655.759,3.173-23.19,1.981.271-2.7,19.727c2.607-.767,5.023-.437,6.678.961a5.471,5.471,0,0,1,1.86,4.492,8.133,8.133,0,0,1-3.2,6.073C340.249,720.6,336.133,720.711,332.826,720.8Z" transform="translate(-216.5 -108.5)" fill="#2f2e41"/>
    <rect id="Rectangle_7" data-name="Rectangle 7" width="10.771" height="2" transform="translate(134.076 580.229)" fill="#2f2e41"/>
    <rect id="Rectangle_8" data-name="Rectangle 8" width="10.771" height="2" transform="translate(100.076 580.229)" fill="#2f2e41"/>
    <path id="Path_26" data-name="Path 26" d="M299.05,784.22a110.454,110.454,0,0,0,66.82-1.88c.42-.15.84-.3,1.25-.45a53.273,53.273,0,0,0-16.95-8.76,8.527,8.527,0,0,0-.02-4.7,9.459,9.459,0,0,0-9.15-6.64H327.96a9.426,9.426,0,0,0-9.13,6.63,8.563,8.563,0,0,0-.02,4.71,53.329,53.329,0,0,0-15.12,7.41q-1.4.975-2.7,2.04C300.33,783.11,299.68,783.66,299.05,784.22Z" transform="translate(-216.5 -108.5)" fill="#2f2e41"/>
    <path id="Path_27" data-name="Path 27" d="M377.49,692.29c0,9.02,4.44,16.5,10.21,17.8a8.26,8.26,0,0,0,1.79.2c6.61,0,12-8.07,12-18,0-5.76-1.81-10.89-4.62-14.18a11.579,11.579,0,0,0-3.53-2.87,8.366,8.366,0,0,0-3.85-.95,8.773,8.773,0,0,0-5.11,1.72C380.31,678.89,377.49,685.1,377.49,692.29Z" transform="translate(-216.5 -108.5)" fill="#3f3d56"/>
    <path id="Path_28" data-name="Path 28" d="M270.49,692.29c0,7.76,3.28,14.38,7.88,16.91a8.54,8.54,0,0,0,4.12,1.09,7.726,7.726,0,0,0,.959-.06c6.161-.73,11.041-8.49,11.041-17.94,0-7.57-3.13-14.06-7.55-16.71a8.575,8.575,0,0,0-4.45-1.29,8.368,8.368,0,0,0-3.85.95,11.643,11.643,0,0,0-3.54,2.88C272.3,681.41,270.49,686.54,270.49,692.29Z" transform="translate(-216.5 -108.5)" fill="#3f3d56"/>
    <path id="Path_29" data-name="Path 29" d="M279.118,707.474a1.5,1.5,0,0,0,1.422-1.98,58.5,58.5,0,1,1,112.687-6.575,1.5,1.5,0,1,0,2.935.619A61.5,61.5,0,1,0,277.7,706.454a1.5,1.5,0,0,0,1.421,1.021Z" transform="translate(-216.5 -108.5)" fill="#3f3d56"/>
    <path id="Path_30" data-name="Path 30" d="M362.449,663.292c2.119,2.893,1.074,6.791-1.158,9.285-2.905,3.245-7.539,3.45-11.562,2.848-4.514-.676-9.3-2.791-13.873-1.366-3.9,1.215-6.674,4.748-10.721,5.635-3.589.787-7.881-.255-9.139-4.08-.6-1.838,2.291-2.626,2.893-.8.814,2.475,4.329,2.425,6.341,1.74,3.227-1.1,5.714-3.771,8.885-5.047,3.739-1.5,7.8-.826,11.6.032,3.588.808,7.718,2.006,11.293.5,2.645-1.117,4.75-4.635,2.847-7.232-1.142-1.559,1.46-3.057,2.59-1.514Z" transform="translate(-216.5 -108.5)" fill="#2f2e41"/>
    <path id="Path_31" data-name="Path 31" d="M329.5,791.5a112.794,112.794,0,0,1-31.282-4.4c-1.2-.335-2.451-.718-3.712-1.131A112.7,112.7,0,0,1,274.088,777c-1.218-.683-2.44-1.4-3.733-2.2a113.1,113.1,0,0,1-17.934-13.672c-.909-.848-1.809-1.718-2.689-2.587a112.991,112.991,0,1,1,118.413,26.165c-.413.151-.84.3-1.267.456A112.739,112.739,0,0,1,329.5,791.5Zm0-220a107,107,0,0,0-75.542,182.786c.83.82,1.689,1.65,2.558,2.461A107.1,107.1,0,0,0,273.5,769.695c1.225.755,2.377,1.434,3.526,2.079a106.658,106.658,0,0,0,19.339,8.493c1.188.389,2.361.746,3.495,1.065a107.453,107.453,0,0,0,65.017-1.823l1.212-.436A107.014,107.014,0,0,0,329.5,571.5Z" transform="translate(-216.5 -108.5)" fill="#ccc"/>
  </g>
</svg>
